<?xml version="1.0" encoding="utf-8"?>
<!-- Generator: Adobe Illustrator 16.0.0, SVG Export Plug-In . SVG Version: 6.00 Build 0)  -->
<!DOCTYPE svg PUBLIC "-//W3C//DTD SVG 1.1//EN" "http://www.w3.org/Graphics/SVG/1.1/DTD/svg11.dtd">
<svg version="1.1" id="Layer_1" xmlns="http://www.w3.org/2000/svg" xmlns:xlink="http://www.w3.org/1999/xlink" x="0px" y="0px"
	 width="305.962px" height="311.961px"  enable-background="new 0 0 305.962 311.961"
	 xml:space="preserve">
	 <symbol id="caro-horse" viewBox="0 0 305.962 311.961">
<path fill-rule="evenodd" clip-rule="evenodd" fill="#90D1E3" d="M49.524,245.226c-0.376,3.471-0.912,6.889-4.087,9.079
	c-3.559,2.455-7.208,1.66-10.505-0.318c-7.562-4.538-11.958-11.685-13.786-19.975c-2.64-11.971-0.036-23.608,4.523-34.743
	c2.921-7.135,8.233-11.966,15.849-14.04c2.223-0.605,4.378-1.461,6.564-2.201c6.547-0.63,13.093-1.26,19.686-1.895
	c-0.849-1.645-1.689-3.271-2.528-4.897c2.676-1.545,5.426-2.977,8.015-4.655c8.94-5.798,17.346-12.248,24.324-20.401
	c0.259-0.303,0.908-0.273,1.375-0.398c0.358,1.173,0.591,2.404,1.094,3.511c2.396,5.269,5.764,9.807,9.912,13.885
	c8.961,8.811,19.696,13.155,32.161,13.256c3.833,0.03,7.668-0.567,11.508-0.667c6.634-0.172,13.026-1.495,19.215-3.798
	c8.162-3.039,14.721-7.851,17.303-16.664c1.754-5.985,1.433-12.045-0.174-17.988c-1.418-5.246-3.184-10.397-4.795-15.59
	c0.897-0.248,1.79-0.685,2.694-0.708c3.461-0.089,6.931,0.056,10.39-0.078c4.939-0.189,9.483,1.063,13.813,3.329
	c2.272,1.19,4.568,2.335,6.854,3.501c3.511,3.522,7.021,7.044,10.532,10.566c2.773,4.365,5.878,8.561,8.227,13.145
	c2.18,4.254,4.517,8.802,5.081,13.429c1.167,9.574,1.196,19.288,1.706,28.943c0.281,5.349,1.413,10.533,3.396,15.493
	c0.473,1.184,1.649,2.085,2.504,3.116c1.205,0.503,2.393,1.381,3.62,1.443c4.605,0.232,8.031,2.58,10.6,6.033
	c4.173,5.611,6.158,12.03,6.164,19.086c0.003,2.952,0.206,5.954,0.772,8.846c0.676,3.45,2.372,6.059,6.409,6.726
	c9.017,1.49,14.861,6.915,17.756,15.479c1.689,4.998-0.778,8.273-6.039,8.394c-6.179,0.141-11.597-2.282-16.817-5.162
	c-2.366-1.304-4.458-3.107-6.674-4.685c-3.778-3.474-4.91-7.802-4.516-12.815c0.171-2.175-0.438-4.408-0.658-6.618
	c-0.686-6.86-3.826-12.539-8.72-17.195c-2.493-2.372-5.29-4.583-9.096-4.529c-0.765-0.469-1.529-0.938-2.294-1.407
	c-4.451-1.532-8.904-3.059-13.353-4.601c-7.048-2.443-14.109-4.95-20.245-9.282c-4.345-3.067-8.417-6.544-12.446-10.026
	c-4.404-3.806-9.41-5.897-15.197-6.164c-6.737-0.311-12.94,2.012-19.119,4.16c-7.804,2.715-15.668,4.714-24.012,4.095
	c-5.252-1.007-10.505-2.014-15.757-3.02c-3.674-1.084-7.388-2.047-11.011-3.28c-5.695-1.939-11.452-3.252-17.516-2.672
	c-0.252,0.234-0.505,0.469-0.757,0.702l0.015-0.017c-2.289,0.411-4.653,0.581-6.851,1.276c-7.008,2.214-13.953,4.623-20.923,6.957
	c-1.992,0.022-3.983,0.044-5.975,0.065c-1.538-0.414-3.186-0.602-4.593-1.285c-4.446-2.161-5.687-0.849-7.761,2.295
	c-2.501,3.792-4.385,8.009-6.336,12.137c-0.604,1.28-0.623,2.862-0.788,4.319c-0.257,2.286,0.636,3.777,3.009,4.375
	c1.788,0.448,3.527,1.115,5.254,1.774c2.05,0.782,3.178,2.145,3.033,4.535C49.395,240,49.521,242.616,49.524,245.226z"/>
<path fill-rule="evenodd" clip-rule="evenodd" fill="#B7B7B7" d="M218.927,132.77c-2.286-1.166-4.582-2.311-6.854-3.501
	c-4.329-2.266-8.873-3.519-13.813-3.329c-3.459,0.133-6.929-0.012-10.39,0.078c-0.904,0.023-1.797,0.461-2.694,0.708
	c-4.049,0.408-8.148,0.543-12.137,1.281c-9.083,1.679-18.108,3.663-27.161,5.504c-2.642,0.538-5.297,1.014-7.946,1.518
	c-0.46,0.001-0.92,0.003-1.379,0.004c-0.026-1.517-0.053-3.033-0.079-4.549c-0.001-6-0.002-12.002-0.002-18.003
	c0-6.493,0-12.986,0-19.479c-0.003-5.766-0.006-11.531-0.009-17.295c0.032-6.278,0.064-12.557,0.096-18.835
	c10.46-1.787,20.938-1.815,31.49-0.759c6.307,0.631,12.358,2.161,18.444,3.747c8.593,2.24,16.554,5.979,24.144,10.412
	c8.819,5.149,16.736,11.517,23.78,18.989c5.736,6.086,10.607,12.755,14.741,19.987c1.466,2.565,2.731,5.246,4.088,7.873
	c-9.563-0.911-18.135,1.437-25.461,7.805C224.808,127.511,221.878,130.153,218.927,132.77z"/>
<path fill-rule="evenodd" clip-rule="evenodd" fill="#B7B7B7" d="M136.509,209.237c8.344,0.619,16.208-1.38,24.012-4.095
	c6.179-2.148,12.382-4.471,19.119-4.16c5.787,0.267,10.793,2.358,15.197,6.164c4.029,3.482,8.102,6.959,12.446,10.026
	c6.136,4.332,13.197,6.839,20.245,9.282c4.448,1.542,8.901,3.068,13.353,4.601c-1.981,2.515-3.826,5.151-5.969,7.521
	c-10.414,11.519-23.066,19.957-37.204,26.128c-7.577,3.308-15.607,5.248-23.752,6.869c-9.389,1.87-18.804,1.307-28.219,1.32
	c-3.05,0.004-6.101-0.824-9.152-1.271c-0.041-3.311-0.08-6.619-0.12-9.929c0.003-6.495,0.007-12.99,0.01-19.484
	c-0.001-5.998-0.003-11.996-0.004-17.993C136.483,219.223,136.496,214.23,136.509,209.237z"/>
<path fill-rule="evenodd" clip-rule="evenodd" fill="#B7B7B7" d="M57.734,209.25c1.992-0.021,3.983-0.043,5.975-0.065
	c3.743,0.014,7.486-0.009,11.228,0.047c6.96,0.105,12.517-2.55,16.546-8.28l-0.015,0.017c0.251-0.233,0.504-0.468,0.757-0.702
	c6.064-0.58,11.821,0.732,17.516,2.672c3.623,1.233,7.337,2.196,11.011,3.28c0.004,8.499,0.009,16.998,0.013,25.497
	c0.001,6.009,0.002,12.017,0.003,18.024c-0.008,5.98-0.016,11.96-0.024,17.94c-9.166-2.916-17.645-7.285-25.663-12.51
	c-8.467-5.518-16.009-12.127-22.459-19.963c-1.509-1.834-3.427-3.332-5.158-4.984l0.022,0.024c-0.298-0.519-0.596-1.038-0.894-1.558
	c-0.193-0.376-0.385-0.752-0.578-1.129c-0.578-1.079-1.157-2.156-1.732-3.235c-2.432-4.559-4.861-9.117-7.292-13.677
	C57.239,210.183,57.486,209.717,57.734,209.25z"/>
<path fill-rule="evenodd" clip-rule="evenodd" fill="#90D1E3" d="M57.002,116.222c-1.654,0.771-3.3,1.561-4.965,2.31
	c-1.108,0.497-2.242,0.935-3.366,1.399c1.121-5.163,2.25-10.324,3.359-15.489c1.601-7.452,1.267-15.003,1.098-22.543
	c-0.007-0.314-0.347-0.62-0.532-0.93c0.547-0.491,1.164-1.463,1.632-1.397c4.512,0.638,9.139,0.992,13.461,2.317
	c7.078,2.172,11.849,7.7,16.153,13.308c3.605,4.698,6.413,10.011,9.549,15.066c1.689,2.722,3.331,5.475,4.993,8.214
	c-0.816,1.035-1.837,1.968-2.415,3.122c-3.76,7.525-8.542,14.395-14.698,20.033c-5.836,5.346-12.302,10.018-18.63,14.801
	c-1.61,1.217-3.749,1.734-5.644,2.573c-2.479-7.496-1.965-14.889,1.308-21.966c2.663-5.759,2.624-11.76,2.361-17.813
	c-0.066-1.532-0.913-3.046-1.521-4.52c-0.073-0.178-0.894-0.048-1.369-0.061c-0.267,0.535-0.533,1.069-0.799,1.604L57.002,116.222z"
	/>
<path fill-rule="evenodd" clip-rule="evenodd" fill="#B0619D" d="M98.385,118.477c-1.662-2.739-3.303-5.492-4.993-8.214
	c-3.137-5.055-5.944-10.369-9.549-15.066c-4.304-5.608-9.076-11.136-16.153-13.308c-4.322-1.326-8.949-1.68-13.461-2.317
	c-0.469-0.066-1.085,0.907-1.632,1.397c-2.51-0.744-5.02-1.487-7.529-2.231c0.053-1.446-0.731-2.021-2.043-2.564
	c-3.952-1.638-8.165-2.906-11.027-6.437C39,61.781,47.895,56.945,58.252,55.647c13.437-1.685,24.578,3.205,33.079,13.847
	c1.073,1.344,2.062,2.756,3.089,4.137c1.058,2.502,2.417,4.924,3.113,7.523c1.655,6.177,3.064,12.423,4.445,18.669
	c1.365,6.173,2.823,12.344,6.31,17.694c2.354,3.612,5.174,6.935,7.936,10.261c1.405,1.691,2.644,3.3,2.167,5.646
	c-2.217-0.732-4.435-1.463-6.652-2.194c-3.63-3.502-7.255-7.007-10.892-10.501C100.046,119.958,99.207,119.226,98.385,118.477z"/>
<path fill-rule="evenodd" clip-rule="evenodd" fill="#B0619D" d="M218.927,132.77c2.951-2.617,5.881-5.259,8.858-7.846
	c7.326-6.368,15.897-8.715,25.461-7.805c1.283,0.355,2.557,0.75,3.851,1.061c9.979,2.399,15.905,8.946,17.964,18.689
	c1.635,7.733,2.068,15.575,1.116,23.604c-0.958,8.073-3.119,16.074-2.47,24.304c0.473,5.996,1.139,11.979,1.757,18.355
	c-4.405-4.778-9.557-8.676-13.003-14.214c-4.349-6.556-6.665-13.65-6.864-21.627c-0.149-5.977,2.175-11.405,2.708-17.185
	c0.599-6.497-2.022-11.302-7.542-13.381c-7.285-2.744-16.354,0.196-21.304,6.611C225.948,139.814,222.438,136.292,218.927,132.77z"
	/>
<path fill-rule="evenodd" clip-rule="evenodd" fill="#B7B7B7" d="M229.459,143.336c4.949-6.415,14.019-9.354,21.304-6.611
	c5.52,2.079,8.141,6.884,7.542,13.381c-0.533,5.78-2.857,11.208-2.708,17.185c0.199,7.977,2.516,15.071,6.864,21.627
	c-0.516,0.691-1.297,1.313-1.505,2.086c-2.492,9.238-5.825,18.131-10.583,26.458c-0.854-1.031-2.031-1.933-2.504-3.116
	c-1.983-4.96-3.115-10.145-3.396-15.493c-0.51-9.655-0.539-19.369-1.706-28.943c-0.564-4.627-2.901-9.175-5.081-13.429
	C235.337,151.897,232.232,147.701,229.459,143.336z"/>
<path fill-rule="evenodd" clip-rule="evenodd" fill="#B7B7B7" d="M118.391,133.425c0.477-2.347-0.762-3.956-2.167-5.646
	c-2.762-3.326-5.582-6.649-7.936-10.261c-3.487-5.35-4.945-11.521-6.31-17.694c-1.381-6.246-2.79-12.492-4.445-18.669
	c-0.696-2.599-2.055-5.021-3.113-7.523c5.103-2.817,10.126-5.792,15.336-8.394c3.527-1.763,7.316-3.001,10.987-4.475
	c0.009,1,0.018,2,0.027,3c0,6.484,0,12.968,0,19.452c0.002,5.771,0.004,11.543,0.006,17.314c-0.003,6.485-0.007,12.97-0.011,19.455
	c-0.01,4.751-0.021,9.502-0.032,14.253C119.953,133.967,119.171,133.696,118.391,133.425z"/>
<path fill-rule="evenodd" clip-rule="evenodd" fill="#90D1E3" d="M31.996,69.737c2.862,3.531,7.075,4.798,11.027,6.437
	c1.313,0.543,2.096,1.118,2.043,2.564c0.204,3.967,0.793,7.961,0.521,11.896c-0.418,6.04-1.294,12.06-2.251,18.044
	c-0.413,2.578-1.515,5.046-2.292,7.528c-2.874-1.017-5.15-2.117-7.552-2.606c-4.29-0.874-8.557-2.652-13.063-1.074
	c-0.311-5.31-0.598-10.622-0.938-15.93c-0.335-5.223,1.215-10.013,3.345-14.654c2.09-4.555,1.754-6.639-1.811-10.313
	c-1.168-1.204-2.87-2.192-2.01-4.733C23.608,66.267,27.56,69.295,31.996,69.737z M28.451,92.334c0.002,2.053,1.28,3.496,3.042,3.435
	c1.914-0.066,4.348-2.742,4.444-4.887c0.083-1.861-1.32-3.271-3.237-3.249C30.391,87.659,28.449,89.807,28.451,92.334z"/>
<path fill-rule="evenodd" clip-rule="evenodd" fill="#A09CC2" d="M66.015,227.561c0.192,0.377,0.385,0.753,0.578,1.129
	c0.298,0.52,0.596,1.039,0.894,1.558l-0.022-0.024c0.382,2.039,0.917,4.063,1.107,6.118c0.261,2.813,0.594,5.688,0.288,8.469
	c-0.413,3.749-5.887,6.781-9.908,5.316c-3.3-1.202-6.296-3.235-9.428-4.9c-0.002-2.609-0.129-5.226,0.029-7.825
	c0.145-2.391-0.983-3.753-3.033-4.535c-1.727-0.659-3.467-1.326-5.254-1.774c-2.373-0.598-3.267-2.089-3.009-4.375
	c0.165-1.457,0.183-3.039,0.788-4.319c1.951-4.128,3.835-8.345,6.336-12.137c2.074-3.144,3.315-4.456,7.761-2.295
	c1.407,0.684,3.056,0.871,4.593,1.285c-0.248,0.467-0.495,0.933-0.743,1.398c-1.786-0.245-2.986,0.656-3.324,2.258
	c-0.579,2.746-1.09,5.543-1.225,8.337c-0.154,3.208,0.668,4.161,3.816,4.891c1.537,0.356,3.199,0.138,4.777,0.364
	C62.712,226.738,64.356,227.196,66.015,227.561z"/>
<path fill-rule="evenodd" clip-rule="evenodd" fill="#B7B7B7" d="M57.778,114.646c0.475,0.013,1.295-0.117,1.369,0.061
	c0.608,1.473,1.455,2.988,1.521,4.52c0.262,6.054,0.301,12.054-2.361,17.813c-3.273,7.077-3.788,14.471-1.308,21.966
	c-0.828,1.213-1.723,2.385-2.472,3.644c-3.636,6.113,1.195,14.179,7.755,13.596c0.979-0.086,1.971-0.011,2.957-0.01
	c0.839,1.626,1.679,3.253,2.528,4.897c-6.593,0.635-13.139,1.265-19.686,1.895c-0.529-3.899-1.185-7.788-1.542-11.703
	c-0.236-2.592,0.05-5.227-0.062-7.835c-0.542-12.669,2.273-24.75,6.382-36.596c1.25-3.603,2.755-7.117,4.143-10.672l-0.023,0.028
	C57.245,115.715,57.511,115.18,57.778,114.646z"/>
<path fill-rule="evenodd" clip-rule="evenodd" fill="#A09CC2" d="M243.175,232.463c3.806-0.054,6.603,2.157,9.096,4.529
	c4.894,4.656,8.034,10.335,8.72,17.195c0.221,2.21,0.829,4.443,0.658,6.618c-0.395,5.014,0.737,9.342,4.516,12.815
	c-8.002,0.887-18.143-5.377-20.807-14.298c-1.222-4.092-1.903-8.419-2.222-12.685C242.785,241.94,243.132,237.19,243.175,232.463z"
	/>
<path fill-rule="evenodd" clip-rule="evenodd" fill="#AF65A0" d="M20.429,112.525c4.507-1.578,8.773,0.2,13.063,1.074
	c2.401,0.489,4.678,1.59,7.552,2.606c0.777-2.482,1.88-4.95,2.292-7.528c0.957-5.984,1.833-12.005,2.251-18.044
	c0.272-3.934-0.317-7.928-0.521-11.896c2.51,0.744,5.02,1.487,7.529,2.231c0.185,0.31,0.525,0.616,0.532,0.93
	c0.169,7.54,0.503,15.091-1.098,22.543c-1.11,5.165-2.239,10.327-3.359,15.489l0.045,0.004c-0.221,0.256-0.442,0.513-0.665,0.769
	c-1.271,1.773-2.542,3.547-3.814,5.32c-1.264-0.364-2.56-0.644-3.786-1.108c-3.09-1.169-6.079-2.669-9.239-3.576
	c-3.509-1.006-7.165-1.502-10.756-2.221C19.023,116.928,19.033,114.73,20.429,112.525z"/>
<path fill-rule="evenodd" clip-rule="evenodd" fill="#90D1E3" d="M20.457,119.119c3.592,0.719,7.247,1.214,10.756,2.221
	c3.161,0.907,6.149,2.406,9.239,3.576c1.226,0.464,2.521,0.744,3.786,1.108c-0.242,3.322-0.052,6.748-0.826,9.941
	c-1.189,4.913-6.215,7.434-11.084,6.104c-1.308-0.356-2.594-0.794-3.897-1.17c-5.496-1.585-8.077-5.345-8.1-10.95
	C20.316,126.34,20.411,122.73,20.457,119.119z"/>
<path fill-rule="evenodd" clip-rule="evenodd" fill="#92CADE" d="M120.77,83.215c0-6.484,0-12.968,0-19.452
	c0.565-0.217,1.152-0.391,1.692-0.657c4.655-2.29,9.303-4.596,13.953-6.897c0.076,0.214,0.124,0.435,0.144,0.661
	c-0.032,6.278-0.064,12.557-0.096,18.835c-1.585,0.687-3.198,1.316-4.75,2.072C128.049,79.558,124.416,81.399,120.77,83.215z"/>
<path fill-rule="evenodd" clip-rule="evenodd" fill="#92CADE" d="M120.745,267.68c0.008-5.98,0.016-11.96,0.024-17.94
	c2.116-1.009,4.234-2.015,6.349-3.028c3.121-1.497,6.239-3.001,9.358-4.502c-0.003,6.494-0.007,12.989-0.01,19.484
	c-1.125,0.458-2.286,0.846-3.369,1.389c-4.045,2.029-8.064,4.109-12.093,6.17C120.917,268.728,120.831,268.204,120.745,267.68z"/>
<path fill-rule="evenodd" clip-rule="evenodd" fill="#95CBDF" d="M136.395,278.963c0.031,5.488,0.095,10.976,0.082,16.464
	c-0.011,4.413-3.437,8.196-7.387,8.27c-4.38,0.082-8.041-3.302-8.254-7.912c-0.144-3.105,0.072-6.228,0.127-9.341
	c1.149-0.357,2.378-0.557,3.433-1.097C128.426,283.277,132.4,281.1,136.395,278.963z"/>
<path fill-rule="evenodd" clip-rule="evenodd" fill="#9E9FC4" d="M136.415,56.209c-4.65,2.301-9.297,4.607-13.953,6.897
	c-0.541,0.266-1.127,0.44-1.692,0.657c-0.009-1-0.018-2-0.027-3c0.091-4.987,0.181-9.974,0.271-14.96
	c5.126-2.512,10.253-5.023,15.38-7.534C136.402,44.248,136.408,50.229,136.415,56.209z"/>
<path fill-rule="evenodd" clip-rule="evenodd" fill="#9E9FC4" d="M136.395,278.963c-3.995,2.137-7.969,4.314-11.999,6.384
	c-1.055,0.54-2.284,0.739-3.433,1.097c0.013-5.73,0.027-11.461,0.04-17.191c4.029-2.061,8.048-4.141,12.093-6.17
	c1.083-0.543,2.244-0.931,3.369-1.389c0.041,3.31,0.08,6.618,0.12,9.929C136.521,274.068,136.459,276.517,136.395,278.963z"/>
<path fill-rule="evenodd" clip-rule="evenodd" fill="#95CBDF" d="M136.395,38.268c-5.127,2.511-10.254,5.022-15.38,7.534
	c-0.07-4.483-0.398-8.98-0.146-13.444c0.346-6.127,5.218-9.299,11.045-7.552c1.974,0.592,4.464,3.935,4.546,6.358
	C136.541,33.528,136.425,35.899,136.395,38.268z"/>
<path fill-rule="evenodd" clip-rule="evenodd" fill="#90D1E3" d="M48.052,120.704c0.222-0.256,0.443-0.512,0.665-0.769
	C48.495,120.191,48.274,120.448,48.052,120.704z"/>
<path fill-rule="evenodd" clip-rule="evenodd" fill="#A38CB8" d="M118.391,133.425c0.781,0.271,1.562,0.542,2.343,0.813
	c0.006,0.487,0.011,0.975,0.017,1.462c-4.347,3.665-4.221,9.288,0.286,12.547c4.18,3.022,8.727,3.487,13.271,1.228
	c4.329-2.152,8.203-6.742,4.542-12.048c-0.472-0.685-0.619-1.594-0.917-2.399c2.649-0.504,5.304-0.98,7.946-1.518
	c9.053-1.841,18.078-3.825,27.161-5.504c3.988-0.738,8.088-0.873,12.137-1.281c1.611,5.193,3.377,10.345,4.795,15.59
	c1.606,5.943,1.928,12.003,0.174,17.988c-2.582,8.813-9.141,13.625-17.303,16.664c-6.188,2.303-12.581,3.626-19.215,3.798
	c-3.84,0.1-7.674,0.697-11.508,0.667c-12.465-0.101-23.2-4.445-32.161-13.256c-4.147-4.078-7.516-8.616-9.912-13.885
	c-0.503-1.107-0.736-2.337-1.094-3.511c0.281-0.658,0.466-1.381,0.859-1.965c3.956-5.875,7.946-11.727,11.927-17.585
	C113.956,131.961,116.173,132.693,118.391,133.425z"/>
<path fill-rule="evenodd" clip-rule="evenodd" fill="#9E9FC4" d="M111.739,131.23c-3.981,5.859-7.971,11.711-11.927,17.585
	c-0.393,0.584-0.578,1.307-0.859,1.965c-0.467,0.125-1.116,0.095-1.375,0.398c-6.978,8.153-15.383,14.603-24.324,20.401
	c-2.589,1.679-5.338,3.11-8.015,4.655c-0.986-0.001-1.979-0.076-2.957,0.01c-6.56,0.583-11.392-7.482-7.755-13.596
	c0.749-1.259,1.644-2.431,2.472-3.644c1.895-0.839,4.034-1.356,5.644-2.573c6.329-4.784,12.794-9.456,18.63-14.801
	c6.156-5.638,10.938-12.508,14.698-20.033c0.577-1.154,1.599-2.086,2.415-3.122c0.822,0.75,1.661,1.482,2.462,2.252
	C104.484,124.224,108.109,127.729,111.739,131.23z"/>
<path fill-rule="evenodd" clip-rule="evenodd" fill="#92CADE" d="M120.765,231.715c-0.004-8.499-0.009-16.998-0.013-25.497
	c5.252,1.006,10.504,2.013,15.757,3.02c-0.013,4.993-0.025,9.985-0.038,14.979c-4.171,2.217-8.322,4.475-12.529,6.622
	C122.983,231.327,121.829,231.433,120.765,231.715z"/>
<path fill-rule="evenodd" clip-rule="evenodd" fill="#A09CC2" d="M91.483,200.951c-4.029,5.73-9.585,8.386-16.546,8.28
	c-3.742-0.056-7.485-0.033-11.228-0.047c6.97-2.334,13.915-4.743,20.923-6.957C86.83,201.532,89.194,201.362,91.483,200.951z"/>
<path fill-rule="evenodd" clip-rule="evenodd" fill="#A09CC2" d="M92.225,200.266c-0.252,0.234-0.505,0.469-0.757,0.702
	C91.72,200.734,91.973,200.5,92.225,200.266z"/>
<path fill-rule="evenodd" clip-rule="evenodd" fill="#92CADE" d="M120.765,119.984c0.003-6.485,0.007-12.97,0.011-19.455
	c1.063-0.299,2.208-0.433,3.172-0.924c4.203-2.145,8.354-4.394,12.523-6.604c0,6.493,0,12.986,0,19.479
	c-3.285,1.763-6.528,3.608-9.87,5.256C124.74,118.655,122.716,119.245,120.765,119.984z"/>
<path fill-rule="evenodd" clip-rule="evenodd" fill="#9E9FC4" d="M136.471,93.001c-4.169,2.211-8.32,4.46-12.523,6.604
	c-0.964,0.492-2.11,0.625-3.172,0.924c-0.001-5.771-0.003-11.543-0.006-17.314c3.646-1.816,7.279-3.657,10.942-5.438
	c1.552-0.755,3.165-1.385,4.75-2.072C136.465,81.47,136.468,87.235,136.471,93.001z"/>
<path fill-rule="evenodd" clip-rule="evenodd" fill="#9E9FC4" d="M120.765,119.984c1.951-0.739,3.975-1.329,5.836-2.249
	c3.342-1.647,6.585-3.493,9.87-5.256c0,6.001,0.001,12.002,0.002,18.003c-3.184,1.551-6.344,3.151-9.559,4.635
	c-1.749,0.808-3.588,1.419-5.387,2.119c-0.259-0.512-0.519-1.024-0.777-1.536c-0.006-0.488-0.011-0.975-0.017-1.462
	C120.745,129.486,120.755,124.736,120.765,119.984z"/>
<path fill-rule="evenodd" clip-rule="evenodd" fill="#92CADE" d="M121.528,137.236c1.799-0.699,3.638-1.311,5.387-2.119
	c3.214-1.483,6.375-3.083,9.559-4.635c0.026,1.517,0.053,3.033,0.079,4.549c-0.024,1.373,0.03,2.753-0.087,4.119
	c-0.389,4.536-5.511,7.857-9.807,6.404C122.758,144.237,121.331,141.923,121.528,137.236z"/>
<path fill-rule="evenodd" clip-rule="evenodd" fill="#AF65A0" d="M121.528,137.236c-0.197,4.687,1.23,7,5.131,8.319
	c4.296,1.453,9.418-1.868,9.807-6.404c0.117-1.366,0.063-2.746,0.087-4.119c0.459-0.001,0.919-0.003,1.379-0.004
	c0.298,0.805,0.445,1.714,0.917,2.399c3.662,5.306-0.213,9.896-4.542,12.048c-4.544,2.259-9.091,1.795-13.271-1.228
	c-4.507-3.259-4.633-8.882-0.286-12.547C121.009,136.212,121.269,136.725,121.528,137.236z"/>
<path fill-rule="evenodd" clip-rule="evenodd" fill="#9E9FC4" d="M120.765,231.715c1.064-0.282,2.218-0.388,3.177-0.877
	c4.207-2.147,8.358-4.405,12.529-6.622c0.001,5.997,0.003,11.995,0.004,17.993c-3.119,1.501-6.237,3.005-9.358,4.502
	c-2.114,1.014-4.232,2.02-6.349,3.028C120.767,243.731,120.767,237.724,120.765,231.715z"/>
<path fill-rule="evenodd" clip-rule="evenodd" fill="#FEFEFE" d="M67.486,230.247c-0.298-0.519-0.596-1.038-0.894-1.558
	C66.89,229.209,67.188,229.729,67.486,230.247z"/>
<path fill-rule="evenodd" clip-rule="evenodd" fill="#FEFEFE" d="M57.778,114.646c-0.267,0.535-0.533,1.069-0.799,1.604
	C57.245,115.715,57.511,115.18,57.778,114.646z"/>
<path fill-rule="evenodd" clip-rule="evenodd" fill="#B0619D" d="M28.451,92.334c-0.002-2.527,1.939-4.675,4.25-4.701
	c1.917-0.022,3.32,1.388,3.237,3.249c-0.096,2.145-2.531,4.821-4.444,4.887C29.731,95.831,28.453,94.387,28.451,92.334z"/> 
	</symbol>
</svg>
